<?xml version="1.0" encoding="UTF-8"?>
<svg id="Layer_1" data-name="Layer 1" xmlns="http://www.w3.org/2000/svg" viewBox="0 0 218.99 53.96">
  <defs>
    <style>
      .cls-1 {
        fill: #1c4275;
      }

      .cls-1, .cls-2 {
        stroke-width: 0px;
      }

      .cls-2 {
        fill: #51b0bc;
      }
    </style>
  </defs>
  <g>
    <path class="cls-1" d="M30.78,17.31s3.65-9.61,14.25-14.58c0,0,5.41-3.2,11.82-.88,0,0,3.31,1.88,1.66,9.28s-6.41,15.14-13.15,18.34c0,0,7.84,6.63,7.62,13.59s-4.75,9.28-4.75,9.28c0,0-6.85,4.42-14.69-1.33,0,0,6.08-3.98,6.08-11.05s-7.51-15.36-8.84-22.65Z"/>
    <path class="cls-1" d="M28.19,17.31s-3.65-9.61-14.25-14.58c0,0-5.41-3.2-11.82-.88,0,0-3.31,1.88-1.66,9.28,1.66,7.4,6.41,15.14,13.15,18.34,0,0-7.84,6.63-7.62,13.59s4.75,9.28,4.75,9.28c0,0,6.85,4.42,14.69-1.33,0,0-6.08-3.98-6.08-11.05s7.51-15.36,8.84-22.65Z"/>
    <path class="cls-2" d="M35.42,41.42c0-3.29-5.97-13.04-5.97-13.04,0,0-5.97,9.74-5.97,13.04s2.67,5.97,5.97,5.97,5.97-2.67,5.97-5.97Z"/>
  </g>
  <g>
    <path class="cls-1" d="M103.65.55h-6.53v.78l1.9,1.26v32.36h5.4V1.32c0-.48-.29-.76-.76-.76Z"/>
    <path class="cls-1" d="M83.66,3.4c-6.36,0-10.8,4.41-10.8,10.72s4.44,10.72,10.8,10.72,10.8-4.41,10.8-10.72-4.44-10.72-10.8-10.72ZM83.66,20.62c-3.31,0-5.36-2.49-5.36-6.51s2.05-6.51,5.36-6.51,5.4,2.49,5.4,6.51-2.07,6.51-5.4,6.51Z"/>
    <path class="cls-1" d="M141.97.55h-5.74v.79l1.26.95v4.62h-3.81V1.71c0-.48-.29-.76-.76-.76h-5.78v.78l1.38.95v15.53h5.16v-6.68h3.81v5.28c0,2.36-1.01,3.82-2.63,3.82h-19.25v.78l1.58,1.11v9.7c0,1.66,1.08,2.74,2.74,2.74h22.73v-13.57c0-.48-.29-.76-.76-.76h-3.05l1.64-.8c1.35-.66,2.25-2.59,2.25-4.8V1.32c0-.48-.29-.76-.76-.76ZM137.26,30.82h-13.66c-.59,0-1.01-.43-1.01-1.01v-5.12h14.67v6.14Z"/>
    <path class="cls-1" d="M121.5,7.77l-.05-.14.05-.14c.62-1.74.96-3.59,1-5.36,0-.46-.32-.75-.84-.75h-6.14v.78l1.58,1.11v.22c-.09,4.36-3.21,9.07-7.82,11.88l3.38,3.11c2.35-1.5,4.47-3.5,6.13-5.8l.35-.48.34.48c1.43,2.02,3.4,3.8,5.7,5.14l2.67-3.61c-3.17-1.66-5.54-4.07-6.35-6.45Z"/>
    <path class="cls-1" d="M179.11.55h-6.53v.78l1.9,1.26v1.6h-6.22v-2c0-.48-.29-.76-.76-.76h-6.14v.77l1.74,1.11v2.91h-7.95v-3.23c0-.48-.29-.76-.76-.76h-6.06v.78l1.58,1.11v10.97c0,1.66,1.08,2.74,2.74,2.74h15.62v-2.53h6.22v1.05c0,.96,0,3.9-3.05,4.02h-.03s-.03,0-.03,0c-.62-.08-1.24-.12-1.88-.12-6.13,0-10.4,3.3-10.4,8.03s4.28,8.03,10.4,8.03,10.4-3.3,10.4-8.03c0-2.8-1.51-5.16-4.24-6.62l-.97-.52,1.07-.26c2.75-.66,4.14-2.78,4.14-6.31V1.32c0-.48-.29-.76-.76-.76ZM163.1,13.67h-6.94c-.59,0-1.01-.43-1.01-1.01v-2.56h7.95v3.57ZM169.47,32.24c-3.04,0-5-1.56-5-3.98s1.96-3.98,5-3.98,5,1.56,5,3.98-1.96,3.98-5,3.98ZM174.47,11.22h-6.22v-2.98h6.22v2.98Z"/>
    <path class="cls-1" d="M212.8,21.06h-7.03v3.74h7.03v1.94h5.4V1.32c0-.48-.29-.76-.76-.76h-6.53v.78l1.9,1.26v18.47Z"/>
    <path class="cls-1" d="M194.62,23.89h5.64v-4.53h.41c6.12-.21,8.46-.62,9.89-1.04l-.19-3.9c-3.14.76-8.68.98-23.88.99l.33,4.14c2.8,0,5.24,0,7.39-.04h.43s0,4.39,0,4.39Z"/>
    <path class="cls-1" d="M199.04,29.61v-2.96c0-.48-.29-.76-.76-.76h-6.22v.77l1.58,1.03v4.34c0,1.66,1.08,2.74,2.74,2.74h22.61v-4.14h-18.94c-.59,0-1.01-.43-1.01-1.01Z"/>
    <path class="cls-1" d="M198.03,13.38c5.89,0,9.85-2.69,9.85-6.69s-3.96-6.69-9.85-6.69-9.85,2.69-9.85,6.69,3.96,6.69,9.85,6.69ZM198.03,3.9c2.89,0,4.61,1.04,4.61,2.79s-1.81,2.79-4.61,2.79-4.61-1.1-4.61-2.79,1.72-2.79,4.61-2.79Z"/>
  </g>
  <g>
    <path class="cls-1" d="M73.44,51.72l.71-.31v-7.88l-.71-.31v-.36h2.49v.36l-.71.31v7.88l.71.31v.37h-2.49v-.37Z"/>
    <path class="cls-1" d="M83.84,52.24c-1.13,0-1.77-.16-2.42-.42l-.08-1.92h.37l.31,1.19c.4.2.96.38,1.73.38,1.61,0,2.27-.65,2.27-1.68,0-1.2-.74-1.51-2.16-2.01l-.6-.22c-.96-.35-1.86-.9-1.86-2.34s1.01-2.51,3.05-2.51c.8,0,1.51.11,2.1.24l.06,1.79h-.37l-.3-.94c-.35-.23-.9-.35-1.58-.35-1,0-1.85.56-1.85,1.47,0,1.01.31,1.39,1.69,1.91l.61.23c1.4.53,2.31,1.2,2.31,2.47,0,1.8-1.09,2.7-3.27,2.7Z"/>
    <path class="cls-1" d="M92.16,52.09v-.36l.72-.31,3.45-8.56h.7l3.15,8.56.72.31v.36h-2.71v-.36l.82-.3-.86-2.39h-3.47l-.94,2.39.82.3v.36h-2.4ZM96.48,44.48l-1.51,3.85h2.92l-1.4-3.85Z"/>
    <path class="cls-1" d="M105.83,51.72l.72-.31v-7.88l-.72-.31v-.36h2.03l3.29,7.66,3.72-7.66h1.82v.36l-.72.31v7.88l.72.31v.37h-2.52v-.37l.72-.31v-6.8h-.05l-3.62,7.4h-.64l-3.14-7.4h-.05v6.8l.72.31v.37h-2.28v-.37Z"/>
    <path class="cls-1" d="M128.81,51.72l.71-.31v-7.88l-.71-.31v-.36h2.5v.36l-.71.31v3.23h4.81v-3.23l-.71-.31v-.36h2.5v.36l-.71.31v7.88l.71.31v.37h-2.5v-.37l.71-.31v-3.96h-4.81v3.96l.71.31v.37h-2.5v-.37Z"/>
    <path class="cls-1" d="M151.4,47.47c0,3.14-2.17,4.76-4.4,4.76s-4.4-1.62-4.4-4.76,2.17-4.76,4.4-4.76,4.4,1.62,4.4,4.76ZM150.3,47.47c0-2.57-1.49-3.99-3.3-3.99s-3.3,1.43-3.3,3.99,1.49,3.99,3.3,3.99,3.3-1.43,3.3-3.99Z"/>
    <path class="cls-1" d="M159.43,52.24c-1.13,0-1.78-.16-2.42-.42l-.08-1.92h.37l.31,1.19c.4.2.96.38,1.73.38,1.61,0,2.27-.65,2.27-1.68,0-1.2-.74-1.51-2.16-2.01l-.6-.22c-.96-.35-1.86-.9-1.86-2.34s1.01-2.51,3.05-2.51c.8,0,1.51.11,2.1.24l.06,1.79h-.37l-.3-.94c-.35-.23-.9-.35-1.58-.35-1,0-1.85.56-1.85,1.47,0,1.01.31,1.39,1.69,1.91l.61.23c1.4.53,2.31,1.2,2.31,2.47,0,1.8-1.09,2.7-3.27,2.7Z"/>
    <path class="cls-1" d="M168.11,52.09v-.37l.71-.31v-7.88l-.71-.31v-.36h3.63c2.17,0,3.27,1.19,3.27,2.72,0,1.76-1.24,2.81-2.78,2.81-.98,0-1.7-.17-2.34-.48v3.5l.72.31v.37h-2.51ZM169.9,47.16c.6.31,1.42.46,1.93.46,1.39,0,2.09-.6,2.09-2.06,0-1.27-.84-1.98-2.33-1.98h-1.69v3.59Z"/>
    <path class="cls-1" d="M180.3,51.72l.71-.31v-7.88l-.71-.31v-.36h2.5v.36l-.71.31v7.88l.71.31v.37h-2.5v-.37Z"/>
    <path class="cls-1" d="M190.17,51.72l.71-.31v-7.83h-2.45l-.34,1.74h-.37l.08-2.46h7.22l.08,2.46h-.37l-.34-1.74h-2.45v7.83l.71.31v.37h-2.5v-.37Z"/>
    <path class="cls-1" d="M198.83,52.09v-.36l.72-.31,3.46-8.56h.7l3.15,8.56.72.31v.36h-2.71v-.36l.82-.3-.86-2.39h-3.47l-.94,2.39.82.3v.36h-2.4ZM203.15,44.48l-1.51,3.85h2.92l-1.4-3.85Z"/>
    <path class="cls-1" d="M212.5,51.72l.71-.31v-7.88l-.71-.31v-.36h2.4v.72h-.61v7.8h3.78l.33-1.59h.36l-.11,2.31h-6.15v-.37Z"/>
  </g>
</svg>