<?xml version="1.0" encoding="UTF-8"?>
<svg id="Layer_1" data-name="Layer 1" xmlns="http://www.w3.org/2000/svg" viewBox="0 0 260.06 64.59">
  <defs>
    <style>
      .cls-1 {
        fill: #000;
        stroke-width: 0px;
      }
    </style>
  </defs>
  <path class="cls-1" d="M54.8.98h-11.62v1.38l3.38,2.25v57.59h9.61V2.34c0-.85-.51-1.36-1.36-1.36Z"/>
  <path class="cls-1" d="M19.22,6.05C7.9,6.05,0,13.89,0,25.12s7.9,19.08,19.22,19.08,19.22-7.85,19.22-19.08S30.53,6.05,19.22,6.05ZM19.22,36.7c-5.88,0-9.54-4.44-9.54-11.58s3.66-11.58,9.54-11.58,9.61,4.44,9.61,11.58-3.68,11.58-9.61,11.58Z"/>
  <path class="cls-1" d="M123,.98h-10.22v1.41l2.25,1.69v8.23h-6.77V3.05c0-.85-.51-1.36-1.36-1.36h-10.29v1.39l2.46,1.69v27.63h9.19v-11.88h6.77v9.4c0,4.19-1.8,6.8-4.69,6.8h-34.27v1.39l2.81,1.97v17.27c0,2.96,1.91,4.88,4.88,4.88h40.45v-24.14c0-.85-.51-1.36-1.36-1.36h-5.43l2.92-1.42c2.4-1.17,4.01-4.6,4.01-8.54V2.34c0-.85-.51-1.36-1.36-1.36ZM114.61,54.84h-24.3c-1.05,0-1.8-.76-1.8-1.8v-9.12h26.11v10.92Z"/>
  <path class="cls-1" d="M86.57,13.83l-.08-.25.09-.25c1.1-3.09,1.72-6.39,1.78-9.54,0-.82-.57-1.34-1.5-1.34h-10.92v1.39l2.82,1.97v.4c-.16,7.76-5.71,16.15-13.92,21.14l6.01,5.54c4.18-2.66,7.95-6.22,10.91-10.33l.61-.85.61.86c2.55,3.6,6.05,6.76,10.15,9.15l4.75-6.42c-5.64-2.96-9.86-7.24-11.3-11.48Z"/>
  <path class="cls-1" d="M189.09.98h-11.62v1.38l3.38,2.25v2.84h-11.06v-3.56c0-.85-.51-1.36-1.36-1.36h-10.92v1.37l3.09,1.97v5.17h-14.16v-5.74c0-.85-.51-1.36-1.36-1.36h-10.78v1.39l2.81,1.97v19.52c0,2.96,1.91,4.88,4.88,4.88h27.8v-4.5h11.06v1.88c0,1.72,0,6.94-5.43,7.15h-.06s-.06,0-.06,0c-1.1-.14-2.2-.21-3.35-.21-10.9,0-18.52,5.88-18.52,14.3s7.61,14.3,18.52,14.3,18.52-5.88,18.52-14.3c0-4.99-2.68-9.17-7.55-11.78l-1.73-.93,1.91-.46c4.89-1.18,7.37-4.95,7.37-11.22V2.34c0-.85-.51-1.36-1.36-1.36ZM160.59,24.33h-12.35c-1.05,0-1.8-.76-1.8-1.8v-4.55h14.16v6.35ZM171.93,57.38c-5.41,0-8.91-2.78-8.91-7.08s3.5-7.08,8.91-7.08,8.91,2.78,8.91,7.08-3.5,7.08-8.91,7.08ZM180.84,19.97h-11.06v-5.3h11.06v5.3Z"/>
  <path class="cls-1" d="M249.04,37.48h-12.52v6.66h12.52v3.45h9.61V2.34c0-.85-.51-1.36-1.36-1.36h-11.62v1.38l3.38,2.25v32.86Z"/>
  <path class="cls-1" d="M216.7,42.52h10.03v-8.06l.73-.02c10.89-.35,15.05-1.08,17.6-1.83l-.35-6.93c-5.59,1.36-15.44,1.75-42.5,1.76l.58,7.36c4.99,0,9.32,0,13.15-.07h.76s0,7.8,0,7.8Z"/>
  <path class="cls-1" d="M224.55,52.69v-5.27c0-.85-.51-1.36-1.36-1.36h-11.06v1.37l2.81,1.83v7.72c0,2.96,1.91,4.88,4.88,4.88h40.24v-7.36h-33.7c-1.05,0-1.8-.76-1.8-1.8Z"/>
  <path class="cls-1" d="M222.77,23.81c10.49,0,17.53-4.79,17.53-11.91s-7.04-11.91-17.53-11.91-17.53,4.79-17.53,11.91,7.05,11.91,17.53,11.91ZM222.77,6.94c5.14,0,8.2,1.86,8.2,4.97s-3.22,4.97-8.2,4.97-8.2-1.95-8.2-4.97,3.07-4.97,8.2-4.97Z"/>
</svg>