<?xml version="1.0" encoding="UTF-8"?>
<svg id="Layer_1" data-name="Layer 1" xmlns="http://www.w3.org/2000/svg" viewBox="0 0 143.8 129.13">
  <defs>
    <style>
      .cls-1 {
        fill: #1c4275;
      }

      .cls-1, .cls-2 {
        stroke-width: 0px;
      }

      .cls-2 {
        fill: #51b0bc;
      }
    </style>
  </defs>
  <path class="cls-1" d="M75.05,39.77s8.89-23.44,34.75-35.56c0,0,13.2-7.81,28.83-2.16,0,0,8.08,4.58,4.04,22.63-4.04,18.05-15.63,36.91-32.06,44.72,0,0,19.13,16.16,18.59,33.14s-11.58,22.63-11.58,22.63c0,0-16.7,10.78-35.83-3.23,0,0,14.82-9.7,14.82-26.94s-18.32-37.45-21.55-55.23Z"/>
  <path class="cls-1" d="M68.75,39.77S59.86,16.33,34,4.21c0,0-13.2-7.81-28.83-2.16,0,0-8.08,4.58-4.04,22.63,4.04,18.05,15.63,36.91,32.06,44.72,0,0-19.13,16.16-18.59,33.14.54,16.97,11.58,22.63,11.58,22.63,0,0,16.7,10.78,35.83-3.23,0,0-14.82-9.7-14.82-26.94s18.32-37.45,21.55-55.23Z"/>
  <path class="cls-2" d="M86.37,98.56c0-8.03-14.55-31.79-14.55-31.79,0,0-14.55,23.75-14.55,31.79s6.51,14.55,14.55,14.55,14.55-6.51,14.55-14.55Z"/>
</svg>